# xmcd CD Database Entry
#
# Track frame offsets:
# 150
# 17227
# 31137
# 45540
# 56922
# 71812
# 84837
# 105852
# 129970
# 153500
# 166935
# 180200
# 192065
# 212510
# 229627
# 247525
#
# Disc length: 3491 seconds
#
# Revision: 5
# Processed by: cddbd v1.4PL0 Copyright (c) Steve Scherf et al.
# Submitted via: tcd 2.0b
#
DISCID=b50da110
DTITLE=Marcus Roberts - The Joy of Joplin
DYEAR=1900
DGENRE=Jazz
TTITLE0=The Entertainer
TTITLE1=Maple Leaf Rag
TTITLE2=Everything's Cool
TTITLE3=Hidden Hues
TTITLE4=From Rags to Riches
TTITLE5=The Easy Winners
TTITLE6=Bethena's Waltz
TTITLE7=Play What You Hear
TTITLE8=Play What's Written
TTITLE9=The Joy of Joplin
TTITLE10=Magnetic Rag
TTITLE11=Elite Syncopation
TTITLE12=Before the Party Begins
TTITLE13=After the Party is Over
TTITLE14=Gladiolus Rag
TTITLE15=A Real Slow Drag (from Treemonisha)
EXTD=ID3G: 8
EXTT0=
EXTT1=
EXTT2=
EXTT3=
EXTT4=
EXTT5=
EXTT6=
EXTT7=
EXTT8=
EXTT9=
EXTT10=
EXTT11=
EXTT12=
EXTT13=
EXTT14=
EXTT15=
PLAYORDER=
